Coordinates
version=1
nRows=17
nColumns=38
inDegrees=no

Units are S.I. units (second, meters, Newtons, ...)
If the header above contains a line with 'inDegrees', this indicates whether rotational values are in degrees (yes) or radians (no).

endheader
time	pelvis_tilt	pelvis_list	pelvis_rotation	pelvis_tx	pelvis_ty	pelvis_tz	hip_flexion_r	hip_adduction_r	hip_rotation_r	knee_angle_r	ankle_angle_r	subtalar_angle_r	mtp_angle_r	hip_flexion_l	hip_adduction_l	hip_rotation_l	knee_angle_l	ankle_angle_l	subtalar_angle_l	mtp_angle_l	lumbar_extension	lumbar_bending	lumbar_rotation	arm_flex_r	arm_add_r	arm_rot_r	elbow_flex_r	pro_sup_r	wrist_flex_r	wrist_dev_r	arm_flex_l	arm_add_l	arm_rot_l	elbow_flex_l	pro_sup_l	wrist_flex_l	wrist_dev_l
1.05	-3.12241	1.30924	1.48237	0.764389	0.207332	1.02008	0.336379	-0.0581038	-0.0088254	1.06152	-0.421901	0	0	0.450336	-0.0198952	-0.21346	0.335931	-0.0929998	0	0	0.161982	-0.0230407	0.0666095	-0.062053	-0.218562	0.276281	0.452504	1.5708	0	0	-0.0940905	-0.319327	0.543721	0.518276	0.993838	0	0
1.06	-3.10644	1.31095	1.46432	0.76496	0.195045	1.02249	0.359849	-0.0565679	-0.0103654	1.08856	-0.371469	0	0	0.431263	-0.0235347	-0.215438	0.326627	-0.0928746	0	0	0.162349	-0.0147081	0.0588197	-0.0557312	-0.217588	0.308141	0.422822	1.5708	0	0	-0.0956627	-0.31509	0.511126	0.530367	1.02667	0	0
1.07	-3.08907	1.31225	1.44758	0.765738	0.182842	1.02496	0.382243	-0.0552697	-0.0143943	1.10935	-0.331549	0	0	0.412934	-0.0266191	-0.217389	0.317573	-0.09414	0	0	0.162777	-0.00650684	0.0492724	-0.0520491	-0.216927	0.335675	0.39814	1.5708	0	0	-0.0965544	-0.3115	0.482238	0.543684	1.05568	0	0
1.08	-3.07162	1.31356	1.43251	0.766653	0.17069	1.02748	0.403362	-0.0540032	-0.0189567	1.1242	-0.294681	0	0	0.39461	-0.0289931	-0.222003	0.309083	-0.0966438	0	0	0.163933	0.00121351	0.0368945	-0.0488669	-0.21673	0.365344	0.375778	1.5708	0	0	-0.0997244	-0.306961	0.447023	0.558373	1.08888	0	0
1.09	-3.05522	1.31515	1.41919	0.767595	0.158518	1.03005	0.423108	-0.0528363	-0.0233602	1.13307	-0.265527	0	0	0.375627	-0.0307969	-0.22927	0.301009	-0.0997547	0	0	0.16472	0.00822478	0.0250141	-0.0485356	-0.216706	0.387961	0.35847	1.5708	0	0	-0.102	-0.303923	0.418524	0.5746	1.11556	0	0
1.1	-3.03921	1.3155	1.40564	0.768424	0.146468	1.03249	0.443582	-0.0511342	-0.0278741	1.13638	-0.239925	0	0	0.357812	-0.0330164	-0.237496	0.293205	-0.103011	0	0	0.166923	0.0152208	0.0142134	-0.0501524	-0.216969	0.405463	0.344818	1.5708	0	0	-0.103936	-0.302023	0.395187	0.591651	1.13661	0	0
1.11	-3.0214	1.31563	1.39046	0.769163	0.134603	1.03487	0.463305	-0.0486078	-0.0326748	1.13436	-0.218416	0	0	0.340369	-0.0359382	-0.244775	0.285313	-0.10629	0	0	0.168485	0.0225052	0.00415122	-0.053374	-0.217478	0.415902	0.335114	1.5708	0	0	-0.103677	-0.301813	0.380403	0.608577	1.151	0	0
1.12	-3.00233	1.31536	1.37449	0.769827	0.122857	1.03713	0.482005	-0.0452185	-0.0376623	1.12706	-0.194142	0	0	0.323459	-0.0393086	-0.249796	0.277	-0.110438	0	0	0.170336	0.0298689	-0.00708574	-0.0565344	-0.21785	0.423863	0.326838	1.5708	0	0	-0.104231	-0.30175	0.364734	0.626468	1.16469	0	0
1.13	-2.98353	1.31439	1.35901	0.770431	0.111183	1.03921	0.500373	-0.0414298	-0.0431558	1.11554	-0.169387	0	0	0.307181	-0.0427282	-0.252003	0.267966	-0.115015	0	0	0.172498	0.0371017	-0.0184332	-0.0602562	-0.218136	0.427334	0.320528	1.5708	0	0	-0.104807	-0.301853	0.349535	0.644843	1.17798	0	0
1.14	-2.9653	1.31263	1.34409	0.770994	0.0996412	1.04112	0.518469	-0.0372458	-0.0485724	1.09952	-0.145632	0	0	0.292004	-0.0465928	-0.25494	0.25909	-0.120311	0	0	0.174821	0.0442575	-0.029451	-0.0645054	-0.218471	0.425984	0.316279	1.5708	0	0	-0.104908	-0.302336	0.33591	0.66342	1.19171	0	0
1.15	-2.94596	1.31088	1.32867	0.771554	0.0881372	1.0429	0.534711	-0.0325578	-0.0541119	1.07864	-0.123625	0	0	0.277068	-0.0509859	-0.25876	0.250524	-0.126003	0	0	0.176504	0.0515942	-0.040432	-0.0689987	-0.218501	0.419189	0.313362	1.5708	0	0	-0.104103	-0.303199	0.324497	0.681729	1.20533	0	0
1.16	-2.92775	1.30843	1.31446	0.772055	0.0767348	1.04445	0.550458	-0.0278301	-0.0598893	1.05306	-0.103718	0	0	0.262882	-0.0553898	-0.262648	0.241903	-0.131722	0	0	0.17847	0.0587484	-0.0506729	-0.0739845	-0.218247	0.406956	0.311876	1.5708	0	0	-0.102495	-0.304525	0.315151	0.699949	1.2184	0	0
1.17	-2.9112	1.30521	1.30216	0.772537	0.0654265	1.04575	0.565742	-0.0234831	-0.0666316	1.02264	-0.0859499	0	0	0.249485	-0.0594455	-0.26613	0.233125	-0.13713	0	0	0.180988	0.0656012	-0.060401	-0.0794012	-0.217662	0.390702	0.311564	1.5708	0	0	-0.0998785	-0.306301	0.308205	0.717568	1.23123	0	0
1.18	-2.89615	1.30143	1.29177	0.773025	0.0541882	1.04679	0.58012	-0.0195321	-0.0743738	0.987253	-0.070318	0	0	0.236761	-0.0631199	-0.269311	0.22448	-0.14228	0	0	0.183781	0.0721873	-0.0695532	-0.0850847	-0.216968	0.372051	0.312261	1.5708	0	0	-0.0961245	-0.308481	0.303789	0.734475	1.24358	0	0
1.19	-2.88327	1.29737	1.28392	0.773509	0.0430044	1.04757	0.593385	-0.0160849	-0.082629	0.947114	-0.0568955	0	0	0.224456	-0.0662332	-0.272394	0.21576	-0.147024	0	0	0.186636	0.078171	-0.0780222	-0.0910075	-0.216383	0.353076	0.313943	1.5708	0	0	-0.0913326	-0.311334	0.302094	0.750955	1.25522	0	0
1.2	-2.87194	1.29332	1.2779	0.773921	0.0318393	1.04808	0.605014	-0.012694	-0.0903513	0.902161	-0.0470586	0	0	0.212374	-0.0691209	-0.275709	0.207424	-0.150478	0	0	0.189523	0.0835574	-0.0861614	-0.0966508	-0.215786	0.336783	0.315735	1.5708	0	0	-0.0859813	-0.314951	0.302282	0.767172	1.26485	0	0
1.21	-2.86216	1.28932	1.27368	0.774244	0.0206623	1.04831	0.614639	-0.00929557	-0.0976596	0.851887	-0.0398767	0	0	0.200482	-0.0718261	-0.278522	0.199633	-0.152837	0	0	0.192337	0.0882209	-0.0938398	-0.102358	-0.214827	0.320245	0.318002	1.5708	0	0	-0.0803256	-0.319024	0.303245	0.783261	1.27391	0	0
